<svg width="21" height="17" viewBox="0 0 21 17" fill="none" xmlns="http://www.w3.org/2000/svg">
<path d="M10.2809 12.565H4.0949V7.32945H2.06126L2.06093 15.7063C2.06093 16.2871 2.52005 16.7534 3.09193 16.7534H11.3399C11.9118 16.7534 12.3709 16.2871 12.3709 15.7063L12.3713 7.32945H10.2809V12.565ZM20.4459 4.65277L17.6951 0.464338C17.5018 0.169838 17.1796 -0.00195312 16.8371 -0.00195312H3.77916C3.43668 -0.00195312 3.11449 0.169838 2.92118 0.464338L0.174526 4.65277C-0.28298 5.34976 0.208356 6.28234 1.03412 6.28234H19.5889C20.4105 6.28234 20.9002 5.34976 20.4459 4.65277ZM16.4669 16.2299C16.4669 16.5162 16.7005 16.7534 16.9824 16.7534H18.0137C18.2956 16.7534 18.5292 16.5162 18.5292 16.2299L18.5289 7.32945H16.4666L16.4669 16.2299Z" fill="#0F4196"/>
</svg>
