<svg width="32" height="31" viewBox="0 0 32 31" fill="none" xmlns="http://www.w3.org/2000/svg">
<path d="M15.9942 30.681C7.4764 30.718 0.472597 23.628 0.675695 14.9686C0.866485 6.72778 7.69181 -0.0913909 16.1912 0.000926459C24.6043 0.0932438 31.5651 7.09705 31.3374 15.7626C31.1219 23.9788 24.352 30.7241 15.9942 30.681ZM2.54051 15.3564C2.6082 23.0556 8.83039 28.9763 16.1788 28.8839C23.3365 28.7916 29.4541 22.9756 29.4602 15.3502C29.4664 7.6448 23.1888 1.70572 15.8157 1.80419C8.65807 1.90266 2.5959 7.73096 2.54051 15.3564Z" fill="#0F4196"/>
<g clip-path="url(#clip0_3_176)">
<path d="M22.609 10.2645L20.1763 22.1281C19.9928 22.9654 19.5142 23.1738 18.834 22.7793L15.1274 19.9548L13.3389 21.7336C13.141 21.9383 12.9755 22.1095 12.594 22.1095L12.8603 18.2058L19.7301 11.7866C20.0288 11.5112 19.6653 11.3586 19.2659 11.634L10.7731 17.1639L7.11688 15.9805C6.32158 15.7237 6.30718 15.1581 7.28241 14.7636L21.5834 9.06627C22.2455 8.8095 22.8249 9.21884 22.609 10.2645Z" fill="#0F4196"/>
</g>
<defs>
<clipPath id="clip0_3_176">
<rect width="16.1219" height="19.0531" fill="white" transform="translate(6.53387 6.59534)"/>
</clipPath>
</defs>
</svg>
