<svg width="32" height="31" viewBox="0 0 32 31"  fill="currentColor" xmlns="http://www.w3.org/2000/svg">
<path d="M15.6656 30.681C7.14779 30.718 0.143984 23.628 0.347082 14.9686C0.537871 6.72778 7.3632 -0.0913909 15.8625 0.000926459C24.2757 0.0932438 31.2365 7.09705 31.0087 15.7626C30.7933 23.9788 24.0234 30.7241 15.6656 30.681ZM2.21189 15.3564C2.27959 23.0556 8.50178 28.9763 15.8502 28.8839C23.0079 28.7916 29.1255 22.9756 29.1316 15.3502C29.1378 7.6448 22.8602 1.70572 15.4871 1.80419C8.32945 1.90266 2.26728 7.73096 2.21189 15.3564Z"/>
<path d="M15.5979 21.6401C13.5177 21.5724 11.4375 21.5108 9.35724 21.4247C8.91411 21.4062 8.45868 21.3201 8.03402 21.1908C7.02469 20.8831 6.58156 20.0769 6.44616 19.1168C6.2923 18.0336 6.18768 16.9381 6.17537 15.8426C6.16306 14.3716 6.25537 12.8946 6.33538 11.4175C6.37231 10.7836 6.53848 10.1558 6.88929 9.61422C7.3878 8.8326 8.16942 8.56796 9.04336 8.51872C13.0992 8.28485 17.1611 8.27254 21.2169 8.46949C21.6662 8.49411 22.1155 8.52488 22.5648 8.57411C23.5741 8.6972 24.3065 9.22649 24.5834 10.2112C24.7865 10.9436 24.9281 11.7129 24.9527 12.4761C25.0081 14.1316 24.9958 15.7933 24.9589 17.455C24.9404 18.1443 24.8235 18.8398 24.6573 19.5168C24.3803 20.6615 23.5926 21.2893 22.4232 21.3878C21.42 21.4678 20.4169 21.5232 19.4137 21.5416C18.1458 21.5662 16.8719 21.5478 15.5979 21.5478C15.5979 21.5724 15.5979 21.6093 15.5979 21.6401ZM18.7428 14.7717C17.0196 13.8731 15.3517 13.0053 13.6654 12.1253C13.6654 13.9101 13.6654 15.6333 13.6654 17.4058C15.364 16.5257 17.0319 15.6641 18.7428 14.7717Z"/>
</svg>
