<svg width="31" height="31" viewBox="0 0 31 31" fill="none" xmlns="http://www.w3.org/2000/svg">
<path d="M15.3228 30.681C6.80502 30.718 -0.198789 23.628 0.0043087 14.9686C0.195098 6.72778 7.02042 -0.0913909 15.5198 0.000926459C23.933 0.0932438 30.8937 7.09705 30.666 15.7626C30.4506 23.9788 23.6806 30.7241 15.3228 30.681ZM1.86912 15.3564C1.93682 23.0556 8.159 28.9763 15.5075 28.8839C22.6651 28.7916 28.7827 22.9756 28.7888 15.3502C28.795 7.6448 22.5174 1.70572 15.1443 1.80419C7.98668 1.90266 1.92451 7.73096 1.86912 15.3564Z" fill="#0F4196"/>
<path fill-rule="evenodd" clip-rule="evenodd" d="M23.7688 11.0227C23.8993 10.5922 23.7688 10.2792 23.1918 10.2792H21.2729C20.7889 10.2792 20.5653 10.5533 20.4349 10.8464C20.4349 10.8464 19.4478 13.3502 18.0694 14.9735C17.6224 15.4429 17.4175 15.5994 17.1753 15.5994C17.0449 15.5994 16.8771 15.4429 16.8771 15.0128V11.0025C16.8771 10.4941 16.7283 10.2594 16.3183 10.2594H13.3006C13.0023 10.2594 12.8162 10.4941 12.8162 10.7289C12.8162 11.2178 13.5054 11.3353 13.5798 12.7044V15.6792C13.5798 16.3246 13.4699 16.4425 13.2258 16.4425C12.574 16.4425 10.9908 13.9193 10.041 11.0441C9.85636 10.4747 9.66876 10.2594 9.18437 10.2594H7.24718C6.6884 10.2594 6.59534 10.5331 6.59534 10.8266C6.59534 11.3548 7.24718 14.0147 9.63139 17.5352C11.2146 19.9398 13.4684 21.2321 15.4987 21.2321C16.7283 21.2321 16.8771 20.9386 16.8771 20.4497V18.6306C16.8771 18.044 16.9888 17.9463 17.3802 17.9463C17.6594 17.9463 18.1624 18.1024 19.2987 19.2566C20.6024 20.6257 20.8259 21.2516 21.5524 21.2516H23.471C24.0297 21.2516 24.2906 20.9581 24.1415 20.3909C23.974 19.8238 23.3405 19.0024 22.5209 18.0246C22.0738 17.4772 21.4033 16.8708 21.1985 16.5772C20.9193 16.186 20.9937 16.0295 21.1985 15.6776C21.1798 15.6776 23.527 12.196 23.7688 11.0212" fill="#0F4196"/>
</svg>
